<?xml version="1.0" encoding="UTF-8" standalone="no"?>
<!-- Created with Inkscape (http://www.inkscape.org/) -->

<svg
   xmlns:dc="http://purl.org/dc/elements/1.1/"
   xmlns:cc="http://creativecommons.org/ns#"
   xmlns:rdf="http://www.w3.org/1999/02/22-rdf-syntax-ns#"
   xmlns:svg="http://www.w3.org/2000/svg"
   xmlns="http://www.w3.org/2000/svg"
   xmlns:xlink="http://www.w3.org/1999/xlink"
   xmlns:sodipodi="http://sodipodi.sourceforge.net/DTD/sodipodi-0.dtd"
   xmlns:inkscape="http://www.inkscape.org/namespaces/inkscape"
   width="426.73819"
   height="426.73209"
   viewBox="0 0 112.90781 112.9062"
   version="1.1"
   id="svg920"
   inkscape:version="0.92.4 5da689c313, 2019-01-14"
   sodipodi:docname="ruby_logo.svg"
   inkscape:export-filename="/mnt/FILES/Pictures/Design/ruby_logo.png"
   inkscape:export-xdpi="96"
   inkscape:export-ydpi="96">
  <defs
     id="defs914">
    <linearGradient
       inkscape:collect="always"
       id="linearGradient828">
      <stop
         style="stop-color:#ffbd8e;stop-opacity:1"
         offset="0"
         id="stop824" />
      <stop
         style="stop-color:#ff5e76;stop-opacity:1"
         offset="1"
         id="stop826" />
    </linearGradient>
    <radialGradient
       inkscape:collect="always"
       xlink:href="#linearGradient828"
       id="radialGradient830"
       cx="67.733337"
       cy="229.26663"
       fx="67.733337"
       fy="229.26663"
       r="56.453903"
       gradientTransform="matrix(1,0,0,0.99998576,0,0.00326515)"
       gradientUnits="userSpaceOnUse" />
  </defs>
  <sodipodi:namedview
     id="base"
     pagecolor="#ffffff"
     bordercolor="#666666"
     borderopacity="1.0"
     inkscape:pageopacity="0.0"
     inkscape:pageshadow="2"
     inkscape:zoom="0.49497475"
     inkscape:cx="531.11572"
     inkscape:cy="-44.887119"
     inkscape:document-units="px"
     inkscape:current-layer="layer1"
     showgrid="false"
     units="px"
     inkscape:window-width="1912"
     inkscape:window-height="1042"
     inkscape:window-x="4"
     inkscape:window-y="34"
     inkscape:window-maximized="0"
     inkscape:snap-page="true"
     inkscape:snap-midpoints="true"
     inkscape:pagecheckerboard="true" />
  <metadata
     id="metadata917">
    <rdf:RDF>
      <cc:Work
         rdf:about="">
        <dc:format>image/svg+xml</dc:format>
        <dc:type
           rdf:resource="http://purl.org/dc/dcmitype/StillImage" />
        <dc:title></dc:title>
      </cc:Work>
    </rdf:RDF>
  </metadata>
  <g
     inkscape:label="Layer 1"
     inkscape:groupmode="layer"
     id="layer1"
     transform="translate(-11.279432,-172.81353)">
    <path
       style="fill:url(#radialGradient830);fill-opacity:1;stroke:none;stroke-width:5.40290022;stroke-miterlimit:4;stroke-dasharray:none;stroke-opacity:1"
       d="m 67.733323,172.81353 c -3.224992,1e-4 -5.838973,2.61409 -5.839078,5.83908 1.05e-4,3.22499 2.614086,5.83898 5.839078,5.83908 3.22499,-1e-4 5.83897,-2.61409 5.839075,-5.83908 -1.05e-4,-3.22499 -2.614085,-5.83898 -5.839075,-5.83908 z m -19.810196,8.6267 c 10e-4,-4.5e-4 -3.582651,6.55236 -1.070645,12.61688 2.512002,6.06451 9.682498,8.163 9.677555,8.16505 0,0 3.500497,-6.75073 1.070652,-12.61688 -2.429853,-5.86618 -9.677562,-8.16505 -9.677562,-8.16505 z m 39.620392,0 c 10e-4,4.3e-4 -7.165561,2.10054 -9.677564,8.16505 -2.512003,6.06447 1.075585,12.61891 1.070653,12.61688 0,0 7.2477,-2.29886 9.677552,-8.16505 2.429852,-5.86614 -1.070641,-12.61688 -1.070641,-12.61688 z m -55.600888,6.19739 c -1.494443,0 -2.988444,0.57026 -4.128683,1.71045 -2.28035,2.28042 -2.28035,5.97906 0,8.25952 2.28049,2.28034 5.979077,2.28034 8.259558,0 2.28034,-2.28046 2.28034,-5.9791 0,-8.25952 -1.140246,-1.14019 -2.636444,-1.71045 -4.130875,-1.71045 z m 71.579199,0 c -1.49444,0 -2.98846,0.57026 -4.12869,1.71045 -2.280337,2.28042 -2.280337,5.97906 0,8.25952 2.28048,2.28034 5.97907,2.28034 8.25954,0 2.28038,-2.28046 2.28038,-5.9791 0,-8.25952 -1.14024,-1.14019 -2.63642,-1.71045 -4.13085,-1.71045 z m -35.788507,3.76377 c -0.42503,0 -5.074013,7.8897 -5.074013,14.19102 0,6.30124 4.648969,14.1909 5.074013,14.1909 0.42503,0 5.07401,-7.88966 5.07401,-14.1909 0,-6.30132 -4.648969,-14.19102 -5.07401,-14.19102 z m -26.620979,11.06479 c -0.08256,-0.001 -0.135097,0.01 -0.153895,0.0246 -0.300556,0.30011 1.990168,9.16587 6.44584,13.62151 4.455666,4.45567 13.323222,6.74863 13.623775,6.44807 0.300556,-0.30059 -1.992377,-9.16807 -6.44805,-13.62378 -4.177185,-4.17714 -12.229578,-6.45176 -13.46767,-6.47223 z m 53.241957,0 c -1.2381,0.0197 -9.292677,2.29504 -13.46988,6.47219 -4.45567,4.4557 -6.746388,13.32323 -6.445842,13.62379 0.300557,0.3006 9.168101,-1.99241 13.623782,-6.44802 4.455658,-4.45565 6.746372,-13.32107 6.445816,-13.62158 -0.01859,-0.0148 -0.07137,-0.0295 -0.153888,-0.0245 z m 13.118129,5.02786 c -1.46708,0.0148 -3.01267,0.26469 -4.52878,0.89252 -6.064538,2.512 -8.162999,9.68251 -8.165049,9.67758 0,0 6.750709,3.50046 12.616869,1.07062 5.86619,-2.42979 8.16285,-9.67754 8.16285,-9.67754 3e-4,8e-4 -3.68465,-2.01519 -8.08589,-1.96318 z m -79.394674,0.0344 c -4.373234,-0.0443 -8.171617,1.92801 -8.171617,1.92801 4.29e-4,-10e-4 2.100503,7.16553 8.16502,9.67753 6.064518,2.512 12.618925,-1.0756 12.616888,-1.07062 0,0 -2.298858,-7.24774 -8.165035,-9.67758 -1.466538,-0.60747 -2.987509,-0.84383 -4.445256,-0.85734 z m -10.959251,15.89909 c -3.225007,1.4e-4 -5.838984,2.61409 -5.839073,5.83908 8.9e-5,3.22499 2.614066,5.83898 5.839073,5.83908 3.22499,-1e-4 5.838965,-2.61409 5.839069,-5.83908 -1.04e-4,-3.22499 -2.614079,-5.83894 -5.839069,-5.83908 z m 101.229635,0 c -3.22499,1.4e-4 -5.84118,2.61409 -5.84129,5.83908 1.1e-4,3.22499 2.6163,5.83898 5.84129,5.83908 3.225,-1e-4 5.83899,-2.61409 5.8391,-5.83908 -1.1e-4,-3.22499 -2.6141,-5.83894 -5.8391,-5.83908 z m -74.289879,0.76509 c -6.301264,0 -14.19097,4.64896 -14.19097,5.07399 0,0.42509 7.889706,5.07399 14.19097,5.07399 6.301272,0 14.190969,-4.64896 14.190969,-5.07399 0,-0.42509 -7.889697,-5.07399 -14.190969,-5.07399 z m 47.350121,0 c -6.30128,0 -14.193164,4.64896 -14.193164,5.07399 0,0.42509 7.891884,5.07399 14.193164,5.07399 6.301257,0 14.190968,-4.64896 14.190968,-5.07399 0,-0.42509 -7.889711,-5.07399 -14.190968,-5.07399 z M 60.874173,235.9455 c -1.238102,0.0197 -9.292689,2.29729 -13.469884,6.47445 -4.455666,4.4557 -6.746386,13.32105 -6.445835,13.62156 0.300557,0.30061 9.165894,-1.99014 13.621566,-6.44585 4.455667,-4.45566 6.748589,-13.32319 6.448044,-13.62374 -0.01869,-0.0148 -0.07133,-0.0296 -0.153896,-0.0246 z m 13.718297,0 c -0.08256,-0.001 -0.135097,0.01 -0.153894,0.0245 -0.300557,0.30061 1.990175,9.16813 6.445845,13.62379 4.455658,4.4557 13.323224,6.74641 13.623756,6.44585 0.300556,-0.30012 -1.990158,-9.16592 -6.445827,-13.62158 -4.177192,-4.17719 -12.231784,-6.45396 -13.46988,-6.47443 z m 28.27202,2.5612 c -4.401614,-0.0512 -8.087426,1.96693 -8.085889,1.96324 0,0 2.298864,7.24769 8.165049,9.67753 5.86614,2.42989 12.61467,-1.07067 12.61467,-1.07067 -4.4e-4,0.001 -2.09834,-7.16548 -8.16285,-9.67747 -1.51611,-0.62804 -3.06376,-0.8756 -4.53098,-0.89263 z m -70.348069,0.0344 c -1.457751,0.0148 -2.978709,0.24994 -4.445262,0.8574 -5.866167,2.4299 -8.16502,9.67754 -8.16502,9.67754 -4.37e-4,-0.001 6.552357,3.58268 12.616873,1.07066 6.064523,-2.512 8.162983,-9.68251 8.165035,-9.67758 0,0 -3.798397,-1.9687 -8.171626,-1.92802 z m 35.216902,0.20664 c -0.42503,0 -5.074013,7.89192 -5.074013,14.19317 0,6.30126 4.648969,14.19096 5.074013,14.19096 0.42503,0 5.07401,-7.8897 5.07401,-14.19096 0,-6.30125 -4.648969,-14.19317 -5.07401,-14.19317 z m -11.203286,17.5634 c 0,0 -7.24771,2.29882 -9.677555,8.16501 -2.429848,5.86619 1.070645,12.61468 1.070645,12.61468 -10e-4,-4.5e-4 7.16555,-2.09829 9.677562,-8.1628 2.512002,-6.06452 -1.075583,-12.6189 -1.070652,-12.61689 z m 22.406571,0 c 0,0 -3.500499,6.75069 -1.070653,12.61689 2.429852,5.86613 9.677564,8.1628 9.677564,8.1628 -0.001,4.3e-4 3.582643,-6.55016 1.070641,-12.61468 -2.512003,-6.06451 -9.682497,-8.16294 -9.677552,-8.16501 z m -46.993977,2.90412 c -1.494443,0 -2.988444,0.57026 -4.128683,1.71041 -2.28035,2.28046 -2.28035,5.9791 0,8.25956 2.280474,2.28033 5.979063,2.28033 8.259558,0 2.28034,-2.28046 2.28034,-5.9791 0,-8.25956 -1.140246,-1.14015 -2.636444,-1.71041 -4.130875,-1.71041 z m 71.579199,0 c -1.49444,0 -2.98846,0.57026 -4.12869,1.71041 -2.280337,2.28046 -2.280337,5.9791 0,8.25956 2.2805,2.28033 5.97907,2.28033 8.25954,0 2.28038,-2.28046 2.28038,-5.9791 0,-8.25956 -1.14024,-1.14015 -2.63642,-1.71041 -4.13085,-1.71041 z m -35.788507,14.82415 c -3.224992,1e-4 -5.838973,2.61625 -5.839078,5.8413 1.05e-4,3.22493 2.614086,5.83892 5.839078,5.83902 3.22499,-1e-4 5.83897,-2.61409 5.839075,-5.83902 -1.05e-4,-3.22505 -2.614085,-5.8412 -5.839075,-5.8413 z"
       id="path5114-91"
       inkscape:connector-curvature="0" />
  </g>
</svg>
